<svg xmlns="http://www.w3.org/2000/svg"  viewBox="0 0 100 100" width="20px" height="20px"><path d="M83,57.965l0.105-0.079c2.409-1.806,3.735-4.526,3.735-7.659v-0.189c0-0.272-0.017-0.546-0.05-0.807 c-0.648-5.185-7.742-15.428-12.265-17.689c-0.171-0.084-0.343-0.16-0.47-0.209c-1.21-0.484-2.447-0.73-3.676-0.73 c-1.502,0-2.96,0.375-4.254,1.087c-1.769,0.708-2.363,1.453-8.025,9.315c-0.445-7.83-1.537-24.53-1.794-26.072 c-0.076-0.456-0.201-0.905-0.376-1.347c-1.264-3.161-3.736-5.283-6.8-5.844c-0.71-0.151-1.497-0.225-2.398-0.225 c-5.147,0-17.349,2.951-21.355,7.167c-2.224,2.271-3.166,5.696-2.402,8.749c0.116,0.465,0.283,0.918,0.495,1.339 c0.139,0.277,0.508,1.009,13.848,22.264c-8.001-3.304-8.289-3.307-9.927-3.307c-3.102,0-6.054,1.644-7.73,4.296 c-3.272,4.971-2.434,15.317-2.327,16.487l0.029,0.25c0.257,1.805,0.556,3.561,1.403,5.255c0.069,0.134,0.142,0.266,0.215,0.387 c1.78,2.966,4.639,4.667,7.842,4.667c1.08,0,1.573,0,5.762-1.196c-3.386,4.068-3.689,4.658-4.073,5.768 c-0.625,1.523-0.625,2.838-0.625,3.489c0,0.702,0.113,1.396,0.335,2.059c0.374,1.12,0.812,2.005,1.512,3.058 c0.183,0.274,0.389,0.538,0.618,0.788c3.193,3.483,13.131,7.455,18.655,7.455c0.682,0,1.327-0.056,1.97-0.178 c3.167-0.632,5.673-2.728,6.876-5.751l0.052-0.132l0.045-0.134c0.435-1.301,0.509-1.531,0.521-9.183 c3.712,6,4.119,6.623,5.347,7.504c1.551,1.308,3.497,2.023,5.522,2.023c1.169,0,2.349-0.231,3.505-0.688 c5.126-1.973,12.859-11.628,13.72-17.112c0.337-1.933,0.196-4.851-2.297-7.968c-0.14-0.173-0.288-0.339-0.464-0.518 c-1.352-1.353-2.06-1.585-6.667-3.097c-0.562-0.184-1.218-0.399-1.958-0.643c5.847-1.411,6.439-1.726,7.711-2.578L83,57.965z" opacity=".35"/><path fill="#f2f2f2" d="M81,55.965l0.105-0.079c2.409-1.806,3.735-4.526,3.735-7.659v-0.189c0-0.272-0.017-0.546-0.05-0.807 c-0.648-5.185-7.742-15.428-12.265-17.689c-0.171-0.084-0.343-0.16-0.47-0.209c-1.21-0.484-2.447-0.73-3.676-0.73 c-1.502,0-2.96,0.375-4.254,1.087c-1.769,0.708-2.363,1.453-8.025,9.315c-0.445-7.83-1.537-24.53-1.794-26.072 c-0.076-0.456-0.201-0.905-0.376-1.347c-1.264-3.161-3.736-5.283-6.8-5.844c-0.71-0.151-1.497-0.225-2.398-0.225 c-5.147,0-17.349,2.951-21.355,7.167c-2.224,2.271-3.166,5.696-2.402,8.749c0.116,0.465,0.283,0.918,0.495,1.339 c0.139,0.277,0.508,1.009,13.848,22.264c-8.001-3.304-8.289-3.307-9.927-3.307c-3.102,0-6.054,1.644-7.73,4.296 c-3.272,4.971-2.434,15.317-2.327,16.487l0.029,0.25c0.257,1.805,0.556,3.561,1.403,5.255c0.069,0.134,0.142,0.266,0.215,0.387 c1.78,2.966,4.639,4.667,7.842,4.667c1.08,0,1.573,0,5.762-1.196c-3.386,4.068-3.689,4.658-4.073,5.768 c-0.625,1.523-0.625,2.838-0.625,3.489c0,0.702,0.113,1.396,0.335,2.059c0.374,1.12,0.812,2.005,1.512,3.058 c0.183,0.274,0.389,0.538,0.618,0.788c3.193,3.483,13.131,7.455,18.655,7.455c0.682,0,1.327-0.056,1.97-0.178 c3.167-0.632,5.673-2.728,6.876-5.751l0.052-0.132l0.045-0.134c0.435-1.301,0.509-1.531,0.521-9.183 c3.712,6,4.119,6.623,5.347,7.504c1.551,1.308,3.497,2.023,5.522,2.023c1.169,0,2.349-0.231,3.505-0.688 c5.126-1.973,12.859-11.628,13.72-17.112c0.337-1.933,0.196-4.851-2.297-7.968c-0.14-0.173-0.288-0.339-0.464-0.518 c-1.352-1.353-2.06-1.585-6.667-3.097c-0.562-0.184-1.218-0.399-1.958-0.643c5.847-1.411,6.439-1.726,7.711-2.578L81,55.965z"/><path fill="#f4665c" d="M24.823,66.571c-0.946,0-1.702-0.567-2.269-1.513c-0.378-0.756-0.567-1.891-0.756-3.215 c-0.378-4.16,0-10.401,1.324-12.292c0.567-0.946,1.513-1.324,2.269-1.324c0.567,0,1.135,0.189,13.427,5.295l3.593,1.513 c1.324,0.567,2.08,1.891,2.08,3.404s-0.946,2.648-2.269,3.026l-5.106,1.702C25.769,66.571,25.391,66.571,24.823,66.571z M49.975,73.379c0,11.914,0,12.292-0.189,12.859c-0.378,0.946-1.135,1.513-2.08,1.702c-3.026,0.567-12.481-3.026-14.561-5.295 c-0.378-0.567-0.567-0.946-0.756-1.513c0-0.378,0-0.756,0.189-1.135c0.189-0.567,0.567-1.135,9.077-11.157l2.458-3.026 c0.756-1.135,2.458-1.324,3.782-0.946c1.324,0.567,2.269,1.702,2.08,3.026C49.975,68.084,49.975,73.379,49.975,73.379z M47.706,48.038c-0.567,0.189-2.458,0.756-4.728-3.026c0,0-15.318-24.395-15.696-25.152c-0.189-0.756,0-1.891,0.756-2.648 c2.269-2.458,14.561-5.862,17.776-5.106c1.135,0.189,1.702,0.946,2.08,1.891c0.189,1.135,1.702,23.639,1.891,28.745 C50.164,47.282,48.273,47.849,47.706,48.038z M56.026,53.711c-0.756-1.135-0.756-2.648,0-3.593l3.215-4.35 c6.808-9.455,7.186-10.023,7.753-10.212c0.756-0.567,1.702-0.567,2.648-0.189c2.648,1.324,8.321,9.645,8.699,12.67 c0,0,0,0,0,0.189c0,1.135-0.378,1.891-1.135,2.458c-0.567,0.378-0.946,0.567-13.994,3.593c-2.08,0.567-3.215,0.756-3.782,0.946 v-0.189C58.296,55.602,56.783,54.846,56.026,53.711z M78.152,69.786c-0.378,3.026-6.619,10.968-9.645,12.103 c-0.946,0.378-1.891,0.378-2.648-0.378c-0.567-0.378-0.946-1.135-7.753-12.103l-2.08-3.215c-0.756-1.135-0.567-2.648,0.378-3.971 c0.946-1.135,2.269-1.513,3.593-1.135l5.106,1.702c11.347,3.782,11.725,3.782,12.103,4.16 C77.963,67.895,78.341,68.84,78.152,69.786z"/><path fill="#40396e" d="M47.008,89.492c-4.221,0-12.801-3.468-14.969-5.833c-0.052-0.057-0.1-0.118-0.143-0.182 c-0.454-0.682-0.697-1.17-0.931-1.869c-0.051-0.153-0.077-0.313-0.077-0.475c0-0.444,0-1.043,0.295-1.696 c0.268-0.784,0.636-1.331,9.328-11.567l2.399-2.953c1.216-1.746,3.578-2.01,5.396-1.49c0.061,0.018,0.121,0.039,0.179,0.063 c2.037,0.873,3.199,2.629,2.99,4.499v5.391c0,12.536,0,12.536-0.267,13.334c-0.585,1.47-1.714,2.399-3.209,2.697 C47.707,89.466,47.373,89.492,47.008,89.492z M34.323,81.708c1.973,1.988,10.764,5.191,13.106,4.757 c0.477-0.096,0.788-0.346,0.964-0.784c0.082-0.254,0.082-2.33,0.082-12.303v-5.484c0-0.071,0.005-0.142,0.015-0.212 c0.087-0.614-0.519-1.125-1.1-1.396c-0.84-0.209-1.754-0.053-2.03,0.36c-0.026,0.039-0.054,0.077-0.084,0.114l-2.458,3.026 C37.072,76.555,34.139,80.055,34,80.472c-0.023,0.067-0.05,0.134-0.082,0.197c-0.017,0.034-0.024,0.116-0.028,0.213 C33.999,81.167,34.118,81.392,34.323,81.708z M67.342,83.641c-0.907,0-1.739-0.323-2.428-0.96 c-0.625-0.434-0.895-0.871-4.566-6.807c-0.927-1.498-2.078-3.359-3.516-5.676l-2.065-3.191c-1.075-1.612-0.92-3.787,0.417-5.658 c0.022-0.03,0.044-0.06,0.068-0.088c1.302-1.563,3.229-2.167,5.157-1.617l5.169,1.722c3.717,1.239,6.255,2.072,8.003,2.645 c4.101,1.345,4.18,1.371,4.687,1.879c0.039,0.039,0.075,0.08,0.11,0.123c1.078,1.348,1.5,2.698,1.255,4.015 c-0.517,3.692-7.109,11.958-10.599,13.266C68.453,83.525,67.884,83.641,67.342,83.641z M57.592,63.14 c-0.448,0.649-0.759,1.559-0.318,2.221l2.091,3.232c1.454,2.342,2.606,4.205,3.533,5.704c2.506,4.051,3.543,5.729,3.81,5.979 c0.083,0.055,0.143,0.104,0.212,0.174c0.122,0.123,0.327,0.326,1.03,0.046c2.471-0.927,8.395-8.353,8.713-10.896 c0.004-0.036,0.01-0.072,0.018-0.108c0.077-0.387-0.098-0.872-0.521-1.443c-0.367-0.155-1.486-0.522-3.515-1.188 c-1.75-0.574-4.293-1.408-8.017-2.649l-5.106-1.702C58.816,62.309,58.13,62.521,57.592,63.14z M24.823,68.071 c-1.425,0-2.688-0.796-3.555-2.241c-0.02-0.033-0.038-0.067-0.056-0.101c-0.485-0.971-0.695-2.238-0.899-3.674 c-0.375-4.101-0.131-10.843,1.549-13.32c0.911-1.479,2.417-2.008,3.529-2.008c0.885,0,0.978,0,14.002,5.41l3.6,1.516 c1.853,0.794,2.998,2.626,2.998,4.786c0,2.131-1.317,3.885-3.357,4.468L37.59,64.59C25.989,68.071,25.624,68.071,24.823,68.071z M23.873,64.338c0.456,0.732,0.827,0.732,0.951,0.732c0.397,0,1.563-0.251,11.861-3.34l5.062-1.688 c0.802-0.231,1.244-0.823,1.244-1.603c0-0.954-0.438-1.711-1.171-2.025l-3.584-1.509c-9.048-3.758-12.352-5.107-12.849-5.179 c-0.1,0.001-0.638,0.03-0.979,0.597c-0.018,0.03-0.037,0.06-0.057,0.088c-0.932,1.331-1.457,6.926-1.059,11.296 C23.434,62.687,23.603,63.758,23.873,64.338z M58.593,56.729c-1.502,0-2.99-0.948-3.815-2.186 c-1.127-1.691-1.096-3.896,0.077-5.362l4.435-6.047c5.767-8.011,6.205-8.62,7.019-8.926c1.102-0.715,2.474-0.799,3.89-0.232 c0.039,0.015,0.077,0.032,0.114,0.051c3.028,1.514,9.076,10.3,9.517,13.826c0.008,0.062,0.012,0.124,0.012,0.186v0.189 c0,1.564-0.583,2.795-1.735,3.658c-0.877,0.588-1.095,0.733-14.555,3.855c-1.118,0.306-1.998,0.508-2.647,0.658 c-0.453,0.104-0.776,0.175-1,0.25c-0.258,0.085-0.532,0.1-0.79,0.043C58.941,56.717,58.767,56.729,58.593,56.729z M67.588,36.935 c-0.457,0.44-2.097,2.718-5.863,7.951l-1.266,1.759l-3.226,4.365c-0.34,0.427-0.395,1.214,0.042,1.87 c0.412,0.618,1.174,0.969,1.485,0.814c0.322-0.161,0.687-0.2,1.027-0.116c0.136-0.032,0.284-0.067,0.445-0.104 c0.622-0.143,1.463-0.336,2.586-0.643c11.187-2.595,13.152-3.125,13.556-3.394c0.271-0.206,0.467-0.493,0.467-1.21v-0.084 c-0.417-2.626-5.624-10.228-7.817-11.406c-0.487-0.182-0.868-0.176-1.13,0.02C67.8,36.828,67.697,36.888,67.588,36.935z M67.469,36.98C67.469,36.98,67.469,36.98,67.469,36.98C67.469,36.98,67.469,36.98,67.469,36.98z M46.859,49.681 c-1.495,0-3.341-0.853-5.167-3.897c-3.587-5.711-15.37-24.49-15.751-25.251c-0.049-0.098-0.087-0.202-0.114-0.308 c-0.291-1.164-0.048-2.874,1.151-4.072c2.723-2.953,15.588-6.348,19.181-5.505c1.397,0.229,2.482,1.176,3.129,2.794 c0.04,0.1,0.069,0.204,0.086,0.31c0.222,1.329,1.74,24.315,1.911,28.936c0.309,3.685-0.728,5.985-3.084,6.767l-0.495-1.417 l0.474,1.423C47.784,49.593,47.339,49.681,46.859,49.681z M28.715,19.348c1.063,1.787,9.731,15.626,15.533,24.866 c0.644,1.073,1.865,2.775,2.983,2.4c0,0,0.023-0.008,0.024-0.008c0.87-0.289,1.218-1.546,1.036-3.739 c-0.184-4.911-1.604-26.143-1.858-28.475c-0.294-0.658-0.567-0.756-0.865-0.806c-2.862-0.672-14.619,2.685-16.428,4.644 C28.797,18.575,28.696,19.043,28.715,19.348z"/></svg>