<svg width="60" height="60" viewBox="0 0 60 60" fill="none" xmlns="http://www.w3.org/2000/svg">
<mask id="mask0" mask-type="alpha" maskUnits="userSpaceOnUse" x="0" y="0" width="60" height="60">
<path d="M0 4.8C0 2.14903 2.14903 0 4.8 0H55.2C57.851 0 60 2.14903 60 4.8V55.2C60 57.851 57.851 60 55.2 60H4.8C2.14903 60 0 57.851 0 55.2V4.8Z" fill="white"/>
</mask>
<g mask="url(#mask0)">
<rect x="-3" y="-1.35001" width="66" height="62.7" fill="black"/>
<path d="M7.20502 31.8282H17.9423V34.4584H10.1083V38.1985H17.7346V40.7286H10.1083V44.5213H17.9423V47.1515H7.20502V31.8282ZM47.6349 47.4171C50.93 47.4171 52.7866 45.839 52.7866 43.677C52.7866 42.1331 51.6874 40.9838 49.3863 40.4867L46.9538 39.9896C45.5416 39.7266 45.0972 39.4635 45.0972 38.9375C45.0972 38.2589 45.7783 37.8381 47.0327 37.8381C48.3923 37.8381 49.3863 38.2063 49.6625 39.4609H52.5236C52.3685 37.1069 50.667 35.5367 47.2168 35.5367C44.2399 35.542 42.1361 36.7834 42.1361 39.1506C42.1361 40.797 43.2853 41.8701 45.7704 42.3935L48.4896 43.0195C49.5625 43.2299 49.8492 43.5166 49.8492 43.9611C49.8492 44.6686 49.0392 45.1131 47.7322 45.1131C46.0834 45.1131 45.1419 44.7475 44.7764 43.4903H41.9073C42.3254 45.8469 44.0769 47.4171 47.6349 47.4171V47.4171ZM41.0842 47.1304H37.9942C36.0587 47.1304 34.9858 45.9258 34.9858 44.4082V38.3931H32.8162V35.8313H34.9858V32.6147H37.8627V35.8313H41.0842V38.3931H37.8627V43.677C37.8627 44.2793 38.2809 44.566 38.9357 44.566H41.0842V47.1304ZM28.7243 35.8208V36.8413C27.7165 35.9874 26.4371 35.5211 25.1163 35.5262C24.3262 35.5096 23.5407 35.6509 22.8058 35.9418C22.071 36.2327 21.4016 36.6674 20.837 37.2204C20.2723 37.7734 19.8237 38.4336 19.5174 39.1622C19.2111 39.8909 19.0534 40.6734 19.0534 41.4638C19.0534 42.2542 19.2111 43.0367 19.5174 43.7653C19.8237 44.494 20.2723 45.1541 20.837 45.7071C21.4016 46.2601 22.071 46.6948 22.8058 46.9858C23.5407 47.2767 24.3262 47.418 25.1163 47.4013C26.437 47.4055 27.716 46.9393 28.7243 46.0862V47.1067H31.5645V35.7971L28.7243 35.8208ZM25.3398 44.9369C24.6554 44.9437 23.9844 44.7468 23.412 44.3714C22.8397 43.996 22.3918 43.4589 22.1253 42.8283C21.8588 42.1978 21.7856 41.5022 21.9152 40.83C22.0447 40.1578 22.3711 39.5393 22.8529 39.053C23.3347 38.5667 23.9501 38.2346 24.621 38.0989C25.2918 37.9631 25.9879 38.0299 26.6208 38.2906C27.2537 38.5514 27.7948 38.9943 28.1754 39.5633C28.556 40.1323 28.759 40.8016 28.7585 41.4861C28.7627 41.9378 28.6773 42.3858 28.5074 42.8043C28.3375 43.2228 28.0863 43.6034 27.7684 43.9243C27.4506 44.2451 27.0723 44.4998 26.6554 44.6736C26.2386 44.8474 25.7914 44.9369 25.3398 44.9369V44.9369Z" fill="#06C167"/>
<path d="M51.8665 18.7512C50.428 18.7512 49.4076 19.8769 49.4076 21.6023V27.9331H47.2118V16.7944H49.3813V18.1568C49.6506 17.7034 50.0367 17.3306 50.4993 17.0775C50.962 16.8244 51.4841 16.7003 52.0111 16.7181H52.8V18.7565L51.8665 18.7512ZM45.6997 22.3624C45.6997 19.0405 43.3329 16.5551 40.1298 16.5551C39.3735 16.5595 38.6255 16.7135 37.929 17.0083C37.2324 17.303 36.601 17.7326 36.0711 18.2723C35.5412 18.8121 35.1232 19.4514 34.8413 20.1533C34.5594 20.8552 34.4191 21.606 34.4285 22.3624C34.4285 25.6817 36.9925 28.1934 40.3402 28.1934C41.2728 28.2123 42.1962 28.0071 43.0331 27.5953C43.87 27.1834 44.596 26.5768 45.15 25.8263L43.5564 24.6506C43.1897 25.1585 42.7059 25.5703 42.1459 25.851C41.586 26.1318 40.9665 26.273 40.3402 26.2629C39.4468 26.2583 38.5845 25.9341 37.9093 25.3489C37.234 24.7638 36.7904 23.9563 36.6586 23.0726H45.7076L45.6997 22.3624ZM36.7033 21.3419C37.0951 19.6402 38.4573 18.4908 40.1035 18.4908C41.7498 18.4908 43.112 19.6402 43.4775 21.3419H36.7033ZM27.4728 16.5551C26.7393 16.5559 26.0131 16.7018 25.3361 16.9844C24.6592 17.2669 24.0447 17.6806 23.5282 18.2015V12.6309H21.3323V27.9331H23.5019V26.5259C24.5538 27.5876 25.9836 28.1891 27.4781 28.1987C28.2526 28.2152 29.0225 28.0768 29.7429 27.7918C30.4632 27.5067 31.1194 27.0807 31.6729 26.5387C32.2265 25.9968 32.6663 25.3497 32.9665 24.6355C33.2668 23.9213 33.4214 23.1543 33.4214 22.3795C33.4214 21.6047 33.2668 20.8378 32.9665 20.1236C32.6663 19.4093 32.2265 18.7623 31.6729 18.2203C31.1194 17.6783 30.4632 17.2523 29.7429 16.9672C29.0225 16.6822 28.2526 16.5439 27.4781 16.5603L27.4728 16.5551ZM27.315 26.2314C26.5509 26.234 25.8032 26.0095 25.1668 25.5866C24.5304 25.1636 24.0338 24.5611 23.7402 23.8556C23.4466 23.15 23.3691 22.3731 23.5175 21.6234C23.666 20.8738 24.0337 20.185 24.574 19.6446C25.1143 19.1042 25.8029 18.7365 26.5525 18.588C27.3021 18.4396 28.0788 18.5171 28.7843 18.8108C29.4898 19.1044 30.0921 19.601 30.5151 20.2375C30.938 20.8741 31.1623 21.6219 31.1597 22.3861C31.1618 22.8916 31.0638 23.3926 30.8713 23.8601C30.6789 24.3276 30.3957 24.7523 30.0383 25.1098C29.6809 25.4672 29.2562 25.7504 28.7888 25.9429C28.3214 26.1354 27.8205 26.2334 27.315 26.2314V26.2314ZM13.2458 26.1262C15.3654 26.1262 17.0116 24.506 17.0116 22.0731V12.6309H19.2864V27.9331H17.0379V26.4944C16.5124 27.0369 15.8823 27.4672 15.1858 27.7592C14.4892 28.0512 13.7407 28.199 12.9855 28.1934C9.71669 28.1934 7.20001 25.8263 7.20001 22.2046V12.6309H9.50105V22.0731C9.50631 24.5323 11.1052 26.1262 13.2458 26.1262V26.1262Z" fill="white"/>
</g>
</svg>
