<svg xmlns="http://www.w3.org/2000/svg"  viewBox="0 0 64 64" width="16px" height="16px"><path fill="#af7a58" d="M54.583,41.218c2.16,4.61.99,9.69-2.61,11.36s-8.25-.71-10.41-5.31-.99-9.69,2.61-11.36S52.433,36.618,54.583,41.218Z"/><path fill="#4a7017" d="M61.513,39.128c3.56,7.62.55,16.66-7.15,21.24-9.07,5.39-20.38,2.16-24.47-6.57l-.5-1.05A25.632,25.632,0,0,1,27,41.318l.24-17.66a7.748,7.748,0,0,1,4.58-6.82l2.79-1.29v.01a6.291,6.291,0,0,0-3.52,5.8c0,.1.01.21.01.32l.71,16.49a28.14,28.14,0,0,0,2.62,10.8l.48,1.01c3.92,8.36,13.67,11.96,21.08,7.39,5.93-3.66,8.13-11.25,5.48-18.23Z"/><path fill="#fffcbd" d="M61.473,39.138c2.65,6.98.45,14.57-5.48,18.23-7.41,4.57-17.16.97-21.08-7.39l-.48-1.01a28.14,28.14,0,0,1-2.62-10.8l-.71-16.49c0-.11-.01-.22-.01-.32a6.291,6.291,0,0,1,3.52-5.8c.01,0,.01-.01.02-.01a6.383,6.383,0,0,1,6.99,1.25l12.23,11.14a28,28,0,0,1,6.62,8.94l.48,1.01C61.143,38.3,61.323,38.718,61.473,39.138Zm-9.5,13.44c3.6-1.67,4.77-6.75,2.61-11.36s-6.82-6.98-10.41-5.31-4.76,6.76-2.61,11.36S48.383,54.248,51.973,52.578Z"/><path fill="#af7a58" d="M23,5.38V6a2.006,2.006,0,0,1-2,2H19a2.006,2.006,0,0,1-2-2V3a2.006,2.006,0,0,1,2-2h2a2.006,2.006,0,0,1,2,2Z"/><path fill="#4a7017" d="M29.393,52.748A25.632,25.632,0,0,1,27,41.318l.24-17.66a7.662,7.662,0,0,1,3.588-6.272l-.391-.866a24.864,24.864,0,0,1-1.57-4.96A7.794,7.794,0,0,0,23,5.38V6a2.006,2.006,0,0,1-2,2H19a2.006,2.006,0,0,1-2-2V5.38a7.781,7.781,0,0,0-5.87,6.18,24.864,24.864,0,0,1-1.57,4.96L4.84,26.98A31.453,31.453,0,0,0,1,42C1,53.6,9.51,63,20,63a17.914,17.914,0,0,0,12.558-5.273A15.429,15.429,0,0,1,29.893,53.8Z"/><path fill="#5b8a1d" d="M61.513,39.128l-.04.01c2.647,6.97.456,14.547-5.455,18.213l-.025.017c-7.41,4.57-17.16.97-21.08-7.39l-.48-1.01a28.14,28.14,0,0,1-2.62-10.8l-.71-16.49c0-.11-.01-.22-.01-.32a6.291,6.291,0,0,1,3.52-5.8v-.01l-1.64.759a7.668,7.668,0,0,0-3.73,6.351L29,40.318a25.632,25.632,0,0,0,2.39,11.43l.5,1.05c3.769,8.045,13.666,11.4,22.3,7.663.058-.034.118-.059.175-.093a17.992,17.992,0,0,0,6.169-6.044A15.928,15.928,0,0,0,61.513,39.128Z"/><path fill="#db996e" d="M21,1H19a2.006,2.006,0,0,1,2,2V6a2.006,2.006,0,0,1-2,2h2a2.006,2.006,0,0,0,2-2V3A2.006,2.006,0,0,0,21,1Z"/><path fill="#db996e" d="M54.583,41.218c-2.15-4.6-6.82-6.98-10.41-5.31a5.716,5.716,0,0,0-1.1.68c3.437-.936,7.534,1.406,9.508,5.63,1.921,4.1,1.2,8.565-1.51,10.679a5.642,5.642,0,0,0,.9-.319C55.573,50.908,56.743,45.828,54.583,41.218Z"/><path fill="#845335" d="M52.614,51.1c-3.07.048-6.342-2.189-8.051-5.828a9.779,9.779,0,0,1-.02-8.878,5.907,5.907,0,0,0-1.468.2c-2.712,2.116-3.424,6.589-1.512,10.68,1.984,4.224,6.074,6.567,9.51,5.629A6.189,6.189,0,0,0,52.614,51.1Z"/><path fill="#ded982" d="M41.563,47.268c-1.649-3.528-1.344-7.338.508-9.678a5.616,5.616,0,0,0-.9.318c-3.6,1.67-4.76,6.76-2.61,11.36s6.82,6.98,10.41,5.31A5.8,5.8,0,0,0,51.079,52.9C47.642,53.838,43.548,51.5,41.563,47.268Z"/><path fill="#2d4f00" d="M29.969,59.849h0l.023-.017c.45-.31.889-.636,1.312-.984s.851-.728,1.253-1.122A15.429,15.429,0,0,1,29.893,53.8l-.5-1.05A25.632,25.632,0,0,1,27,41.318l.24-17.66a7.662,7.662,0,0,1,3.588-6.272l-.391-.866q-.226-.551-.438-1.108c-.123.047-.249.081-.369.136-.01,0-.01.01-.02.01v-.01l-2.79,1.29a7.748,7.748,0,0,0-4.58,6.82L22,41.318a25.632,25.632,0,0,0,2.39,11.43l.5,1.05a15.228,15.228,0,0,0,.985,1.78h0C13.537,54.06,3.922,48.26,1.564,36.1A31.2,31.2,0,0,0,1,42C1,53.6,9.51,63,20,63a17.529,17.529,0,0,0,9.969-3.151"/><path fill="#2d4f00" d="M23,7V6a2.006,2.006,0,0,1-2,2H19a2.006,2.006,0,0,1-2-2V5.38A7.785,7.785,0,0,0,11.272,11H19A4,4,0,0,0,23,7Z"/><ellipse cx="49.684" cy="40.695" fill="#f6fafd" rx="1.642" ry="2.286" transform="rotate(-45.02 49.684 40.694)"/><ellipse cx="52.682" cy="43.708" fill="#f6fafd" rx=".825" ry="1.148" transform="rotate(-45.02 52.681 43.708)"/><ellipse cx="25.682" cy="10.708" fill="#f6fafd" rx=".825" ry="1.148" transform="rotate(-45.02 25.682 10.708)"/><ellipse cx="27.427" cy="14.208" fill="#f6fafd" rx=".413" ry=".574" transform="rotate(-45.02 27.428 14.208)"/><path d="M20,62C10.075,62,2,53.028,2,42A30.476,30.476,0,0,1,5.752,27.394L10.492,16.9a26.4,26.4,0,0,0,1.621-5.159,6.622,6.622,0,0,1,4-4.979A3,3,0,0,0,19,9h2a3,3,0,0,0,2.889-2.235,6.668,6.668,0,0,1,3.893,4.484l1.937-.5A8.685,8.685,0,0,0,24,4.666V3a3,3,0,0,0-3-3H19a3,3,0,0,0-3,3V4.671a8.723,8.723,0,0,0-5.854,6.712,24.468,24.468,0,0,1-1.492,4.728L3.964,26.5A32.373,32.373,0,0,0,0,42C0,54.131,8.973,64,20,64a18.633,18.633,0,0,0,10.564-3.314l-1.13-1.65A16.646,16.646,0,0,1,20,62ZM18,3a1,1,0,0,1,1-1h2a1,1,0,0,1,1,1V6a1,1,0,0,1-1,1H19a1,1,0,0,1-1-1Z"/><path d="M28.9,15.337l1.878-.687c-.252-.69-.453-1.315-.615-1.91l-1.93.524C28.414,13.915,28.631,14.593,28.9,15.337Z"/><polygon points="40.49 57.845 41.032 56.99 41.561 56.156 41.023 56.999 40.316 57.706 40.49 57.845"/><path d="M38.281,53.342l-1.5,1.321A17.49,17.49,0,0,0,39,56.781l1.247-1.564A15.467,15.467,0,0,1,38.281,53.342Z"/><path d="M49.54,54.105a6.739,6.739,0,0,0,2.852-.621,7.234,7.234,0,0,0,3.7-4.18,11.231,11.231,0,0,0-.6-8.505c-2.385-5.091-7.652-7.691-11.738-5.793a7.24,7.24,0,0,0-3.7,4.182,11.225,11.225,0,0,0,.6,8.5C42.508,51.653,46.108,54.105,49.54,54.105ZM41.928,39.872a5.186,5.186,0,0,1,2.658-3.051,4.815,4.815,0,0,1,2.043-.444c2.661,0,5.526,2.032,7.043,5.271a9.227,9.227,0,0,1,.536,6.972,5.19,5.19,0,0,1-2.658,3.05c-3.09,1.437-7.167-.73-9.086-4.827A9.22,9.22,0,0,1,41.928,39.872Z"/><path d="M62.414,38.7l-.043.02c-.16-.42-.329-.84-.523-1.254l-.474-1.014A28.865,28.865,0,0,0,54.518,27.2l-8.842-8.055-1.347,1.479,8.842,8.054A26.918,26.918,0,0,1,59.562,37.3l.475,1.013c3.187,6.8,1.22,14.629-4.575,18.2a13.024,13.024,0,0,1-13.9-.361L40.49,57.845a15.747,15.747,0,0,0,8.442,2.513,14.488,14.488,0,0,0,4.941-.864l-.021.014a17.228,17.228,0,0,1-13.819,1.764A14.82,14.82,0,0,1,30.8,53.38l-.5-1.058A24.535,24.535,0,0,1,28,41.335l.242-17.662A6.557,6.557,0,0,1,30.5,18.905a7.89,7.89,0,0,0-.4,2.819l.712,16.489a28.785,28.785,0,0,0,2.714,11.178L34,50.405a18.281,18.281,0,0,0,1.177,2.131l1.682-1.082a16.4,16.4,0,0,1-1.048-1.9l-.475-1.014a26.8,26.8,0,0,1-2.528-10.415L32.1,21.638a5.353,5.353,0,0,1,2.951-5.183,5.409,5.409,0,0,1,5.894,1.083l1.392,1.267,1.346-1.479-1.391-1.267A7.4,7.4,0,0,0,34.2,14.64l-.01.006,0-.006-2.79,1.3a8.766,8.766,0,0,0-5.16,7.711L26,41.308a26.5,26.5,0,0,0,2.489,11.863l.5,1.058a16.807,16.807,0,0,0,10.461,8.955A18.515,18.515,0,0,0,44.889,64a19.594,19.594,0,0,0,9.984-2.769C62.942,56.435,66.184,46.751,62.414,38.7Z"/></svg>