<svg fill="#000000" xmlns="http://www.w3.org/2000/svg"  viewBox="0 0 64 64" width="64px" height="64px"><path d="M57,15v33c-11.853-3.521-25,4-25,4s-13.147-7.521-25-4V15c-2.622,0.713-4,2-4,2v37c0,0,10.491-6.218,29,1	c18.509-7.218,29-1,29-1V17C61,17,59.622,15.713,57,15z"/><path d="M32,14c0,0-6.318-5-23-5v35c0,0,13.425-0.972,23,6c9.575-6.972,23-6,23-6V9C38.318,9,32,14,32,14z M17.863,38.183	c0,0-0.379,0.324-1.138,0.212s-1.138-0.547-1.138-0.547l0.35-12.559c-1.214-0.449-2.247-1.375-2.247-1.375	c0-4.172,0.759-7.854,0.759-7.854l0.759,0.112v5.69l0.759,0.112l0.379-5.634l0.759,0.112l0.379,5.745l0.759,0.112v-5.69l0.759,0.112	c0,0,0.759,3.905,0.759,8.077c0,0-1.033,0.621-2.247,0.714L17.863,38.183z M27,39.641c0,0-0.379,0.28-1.138,0.081	c-0.759-0.199-1.138-0.678-1.138-0.678l0.647-8.561c-1.099-0.359-2.164-1.699-2.164-1.699s0-5.69,3.034-10.962L27,18.4V39.641z M37,27.963c2.169-1.054,5.709-2.419,10-2.83v3.009c-4.782,0.522-8.537,2.384-10,3.209V27.963z M49,36.012	c-5.723,0.129-10.339,2.403-12,3.339v-3.388c2.497-1.214,6.809-2.842,12-2.944V36.012z M49,20.012	c-5.723,0.129-10.339,2.403-12,3.339v-3.388c2.497-1.214,6.809-2.842,12-2.944V20.012z"/></svg>